<?xml version="1.0" encoding="UTF-8"?>
<svg id="Layer_1" data-name="Layer 1" xmlns="http://www.w3.org/2000/svg" viewBox="0 0 603.58 480.53">
  <defs>
    <style>
      .cls-1 {
        stroke-width: 5px;
      }

      .cls-1, .cls-2, .cls-3, .cls-4, .cls-5, .cls-6, .cls-7 {
        fill: none;
        stroke: #7f9b64;
        stroke-miterlimit: 10;
      }

      .cls-2 {
        stroke-dasharray: 4.93 4.93;
      }

      .cls-3 {
        stroke-dasharray: 4.84 4.84;
      }

      .cls-5 {
        stroke-dasharray: 5.2 5.2;
      }

      .cls-6 {
        stroke-dasharray: 5.12 5.12;
      }

      .cls-7 {
        stroke-dasharray: 5.05 5.05;
      }
    </style>
  </defs>
  <g>
    <path class="cls-4" d="M243.46,123.76c-1.14,73.12-70.55,123.3-135.97,141.22-6.87,2.14-13.68,4.64-17.43,10.73-4.86,8.4-2.79,18.08-2.69,28.72.37,11.83.22,23.68-.46,35.5-2.29,34.12-7.79,68.58-19.76,100.7-2.93,6.88-7.23,13.88-13.35,17.97-6.19,4.26-13.93,4.48-19.68-.04-7.72-5.83-10.46-18.28-11.54-28.05-6.18-70.68-14.88-141.16-18.59-212.04C-1.14,149.65,6.9,72.43,70.39,33.83c71.1-45.43,173.8,2.39,173.07,89.53v.4Z"/>
    <path class="cls-4" d="M243.31,124.61c1.62-54.29-44.02-101.15-96.6-107.92C90.25,8.72,37.06,46.95,16.86,98.51c-8.54,20.09-12.77,42.43-13.8,64.29-2.78,60.04,5.8,120.72,11.26,180.41,2.49,26.25,4.84,52.59,7.63,78.81,1.15,9.51,1.93,19.14,5.74,27.87,4.68,11.1,16,15.93,26.1,8.91,24.46-16.89,33.62-100.02,33.87-129.95.19-8.33.13-16.64-.18-24.96-.12-11.55-2.83-22.38,4.5-30.84,4.51-4.88,11.52-6.88,18.1-8.87,65-17.92,130.93-67.19,133.23-139.17v-.4Z"/>
    <path class="cls-7" d="M68.45,180.84c-16.58-40.39,14.25-97.73,59.5-95.41,16.39.48,32.38,9.48,40.03,24.1,20.41,39.39-17.97,83.28-56.71,90.33-17.51,3.73-34.95-1.88-42.65-18.67l-.17-.35Z"/>
    <path class="cls-4" d="M53.32,204.64c-29.8-54.76,12.38-140.73,76.03-139.58,20.61.11,41.08,10.16,52.89,27.08,14.52,19.75,15.1,48.1,4.04,69.68-14.57,29.12-43.32,48.75-74.14,58.2-22.02,6.79-46.25,6.41-58.63-15.05l-.2-.33Z"/>
    <path class="cls-4" d="M36.42,202.75c-6.81-33.93-4.55-71.49,13.08-101.95,20.49-36.36,65.38-59.29,105.92-45.2,35.08,11.38,58.02,47.79,51.36,84.36-8.57,50.29-56.24,82.07-102.26,95.47-10.27,3.09-20.99,5.99-31.76,5.93-22.35.11-32.14-18.88-36.25-38.21l-.09-.39Z"/>
    <path class="cls-4" d="M49.98,256.58c-23.64-11.62-27.57-62.58-26.53-87.47.63-47.95,22.33-99.14,67.96-119.65,57.2-27.12,127.62,12.34,126.53,77.55-1.13,49.25-41.19,89.19-84.53,107.45-19.22,8.45-39.6,13.74-59.3,20.9-7.64,2.52-16.3,4.52-23.82,1.35l-.31-.13Z"/>
    <path class="cls-4" d="M41.21,278.68c-4.54-4.08-7.64-11.12-9.77-17.13-3.3-9.44-5.67-19.25-7.81-29.03-4.94-23.2-7.19-46.94-5.94-70.67,1.64-44.6,21.36-90.45,59.85-113.83,19.45-12.14,43.27-17.72,65.91-14.67,34.09,4.08,65,27.43,76.77,60.21,14.48,39.32-1.9,82.19-30.27,110.98-23.2,23.59-53.5,37.88-84.64,47.56-12.47,4.01-24.63,9.42-34.51,18.19-8.67,7.6-19.27,17.4-29.35,8.61l-.24-.22Z"/>
    <path class="cls-4" d="M44.15,333.32c-3.84-4.09-6.48-11.53-8.23-17.4-2.49-8.2-4.56-16.69-6.78-25.1-12.14-42.95-18.51-87.8-16.04-132.44,2.77-53.29,29.99-106.25,81.36-125.41,28.6-10.77,60.99-8.67,87.54,6.41,38.09,21.08,57.74,66.99,46.15,108.8-12.84,53.19-61.97,89.12-111.9,105.4-10.77,3.85-22.51,6.78-31.6,13.94-7.73,5.98-12.23,15.02-15,24.23-3.25,10.39-5.18,20.94-8.44,30.97-2.2,7.32-8.8,19.23-16.85,10.81l-.2-.21Z"/>
    <path class="cls-4" d="M33.66,370.69c-3.77-15.02-6.46-30.92-8.68-46.48-3.57-25.7-7.85-51.22-11.07-76.98-4.05-34.08-7.4-68.97-3.34-103.3,3.57-31.32,15.46-62.14,37.92-84.82,31.65-32.85,81.52-47.83,124.54-28.95,52.75,22.1,76.64,83.27,53.85,135.84-21.31,51.56-72.6,78.56-123.01,94.8-5.12,1.82-10.42,3.98-14.66,7.19-8.62,6.16-11.45,16.88-12.46,27.02-1.19,10.77-1.87,21.62-3,32.41-1.99,17.02-6.88,54.31-18.05,66.12-12.92,11.46-19.67-12.82-21.93-22.47l-.1-.39Z"/>
    <path class="cls-4" d="M25.5,374.04c-6.62-43.2-11.4-87.05-15.49-130.62C5.34,188.29-.63,127.38,29.32,78.79c13.39-21.79,33.72-39.73,56.98-49.98,84.97-38.56,176.02,38.63,147.01,128.6-18.44,56.88-74.68,90-129.41,105.87-16.02,5.03-22.73,13.86-23.26,30.51-.54,11.68.06,23.6-.41,35.27-1.18,27.22-5.44,54.68-14.53,80.42-2.14,5.84-4.74,12.06-8.41,16.9-5.29,7.37-13.52,9.37-18.89,1.43-5.56-8.43-6.51-18.87-8.53-28.76-1.44-8.15-2.97-16.59-4.32-24.6l-.07-.4Z"/>
    <path class="cls-4" d="M27.35,424.93c-8.29-53.25-12.8-107.5-17.89-161.19-4.55-55.29-13.88-115.69,8.47-167.56C35.2,55.88,73.66,24.34,117.26,18.03c73.73-11.04,139.04,57.2,120.99,130.4-14.86,61.8-74.49,99.35-132.53,115.8-5.56,1.75-10.5,3.78-13.88,6.89-8.86,8.13-5.88,21.74-6.22,32.76,0,9.64-.43,19.28-1.08,28.86-1.95,29.44-6.23,59.01-15.09,87.2-1.85,5.79-3.98,11.64-6.81,16.97-5.77,11.87-19.28,21.83-28.85,7.25-3.46-5.33-5.18-12.65-6.35-18.85l-.07-.39Z"/>
    <path class="cls-1" d="M23.32,423.69c-6.26-52.69-11.03-106.11-15.22-159.07-4.09-55.33-13.62-115.72,8.36-167.63C34.13,55.08,74.35,22.24,119.82,16.74c73.68-9.05,137.34,58.88,119.71,131.69-14.76,62.41-75.29,101.01-134.24,116.94-5.3,1.63-9.92,3.63-13.09,6.66-5.07,4.58-6.08,12.13-5.87,19.04,2.8,48.83-2.67,98.78-18.95,145.01-3.03,7.74-7.3,16.08-14.1,20.65-8.67,6.09-19.06,2.27-23.81-7.52-3.9-7.57-4.97-16.84-6.09-25.12l-.05-.4Z"/>
  </g>
  <g>
    <path class="cls-4" d="M278.58,16.39c5.18-24.94,37.76-10.83,50.25.76,45.3,34.77,31.82,96.69,69.84,129.8,23.46,19.93,61.59,18.55,81.41-5.45,8.72-9.93,14.02-22.31,19.12-34.37,7.6-18.67,16.81-37.69,29.11-54.3,9.08-12.17,20.49-24.4,34.81-29.48,11.64-4.26,27.14-1.8,33.96,9,12.52,22.62-8.47,62.57-23.83,82.67-10.1,12.86-22.52,24.27-31.15,38.25-31.73,51.57-8.49,156.52,3.52,214.28,3.65,15.34,8.58,30.21,14.6,44.81,3.51,8.87,7.19,17.98,8.38,27.46,4.61,28.79-22.74,47.6-48.11,33.26-11.59-6.43-19.31-18.2-24.16-30.34-17.14-51.35-18.48-107.15-27.98-160.23-.51-3.36-.78-5.15-.72-4.81,4.34,28.7,9.27,59.23,13.77,88.13,5.31,29.68,5.01,62.09,20.17,88.92,17.46,32.78,69.31,32.04,67.34-11.49-2.21-21.09-12.95-40.33-18.29-60.71-9.64-31.57-15.42-64.36-19.71-97.17-4.19-41.13-11.22-88.57,8.15-126.75,9.98-18.5,26.18-31.91,38.15-48.71,12.91-18.23,27.39-42.87,23.2-66.22-3.2-18.55-23-26.97-39.67-18.61-22.77,11.56-37.3,34.67-49.62,56.23-9.13,16.62-14.35,35.22-24.44,51.33-13.37,22.74-41.66,33.73-66.67,25.4-51.19-14.6-47.27-74.52-68.31-113.6-10.21-17.39-25.5-33.62-44.79-40.45-18.14-6.45-33.04,4.9-28.11,24.71,4.21,17.24,13.26,33.21,18.65,49.97,11.38,32.18,20.87,65.41,24.27,99.49,7.89,70.4-20.65,137.4-30.95,205.98-3.67,25.95-6.93,62.61,14.83,80.55,16.58,10.5,37.86-2.43,47.02-17.6,19.82-33.54,25.14-74.38,23.09-112.62-.77-12.7-2.64-25.52-.7-38.21,6.18-41.75,50.58-43.09,82.73-30.7-2.89-.99-8.92-2.74-12.56-3.73-23.77-7.51-56.5-3.81-66.56,22.41-7.29,18.53-3.38,39.94-3.2,59.6,1.15,31.52-3.66,63.74-17.03,92.56-13.49,31.8-50.94,46.52-66.95,7.63-10.29-32.15.66-66.44,6.74-98.42,32.06-121.57,36.26-177.63-11.67-296.54-3.75-10.41-9.02-21.03-7.96-32.33l.05-.35Z"/>
    <path class="cls-1" d="M278.21,16.44c1.55-14.64,17.2-16.11,28.91-11.85,13.46,4.52,24.3,13.81,33.53,24.28,33.32,34.64,22.64,97.17,64.85,123.15,17.69,10.97,40.66,12.36,58.88,2.41,14.91-7.85,24.23-22.63,30.76-37.72,7.16-16.64,13.16-32.13,22.47-47.57,14.69-23.75,33.85-50.1,61.49-47.56,7.73.91,15.6,5.3,19.04,12.09,10.6,23.17-9.64,61.88-25.26,82.04-10.09,12.67-22.41,23.92-30.96,37.76-10.29,16.22-14.17,35.54-15.13,54.51-1.82,60.3,8.35,121.23,24.26,179.23,4.89,17.32,14.42,33.44,17.57,51.26,3.18,16.26-4.93,34.82-22.02,38.56-22.27,5.43-41.48-12.24-49.28-31.84-3.21-7.41-5.39-15.16-7.26-22.98-9.99-43.6-13.56-89.3-20.77-133.52-.95-6.05-2.27-12.23-6.14-17.06-5.65-7.02-14.63-9.14-23.83-11.32-19.28-4.75-43.61-2.08-55.87,14.8-12.73,17.39-8.9,41.15-8.3,61.47,1.4,24.77-.33,49.52-7.17,73.49-6.48,22.48-16.91,50.7-42,56.98-17.79,3.66-32.14-11.26-36.28-27.74-3-10.92-2.87-22.35-2.06-33.55,7.17-73.99,40.38-144.83,34.74-220.02-3.28-45.87-18.13-89.9-34.41-132.59-4.09-11.78-10.73-23.71-9.82-36.36l.04-.36Z"/>
    <path class="cls-4" d="M278.45,15.42c-2.27,11.16,3.77,23.09,7.81,33.64,47.04,116.72,44.41,168.07,13.96,287.79-3.46,14.91-6.72,29.84-9.09,44.95-2.51,17.48-5.07,35.29-1.89,52.82,2.39,12.13,7.55,24.04,17.3,30.01,16.46,9.7,36.59-2.12,45.53-17.13,18.37-30.52,25.26-71.64,24.02-106.95-.39-22.22-6.84-48.4,8.41-67.14,12.96-15.63,35.87-17.51,54.57-13.09,17.59,3.52,27.83,8.94,30.11,27.6,6.55,41.92,13.21,83.89,19.57,125.77,1.55,9.15,3.46,18.37,6.67,27.07,6.96,20.76,26.99,41.41,50.45,36.5,18.05-3.92,25.67-21.83,22.5-39.07-3.85-21.89-14.9-41.64-20.59-63.08-9.76-35.42-15.43-71.99-18.89-108.57-3.47-40-6.21-83.65,17.12-117.97,8.15-12.34,18.95-22.95,27.84-34.63,13.97-18.62,32.21-50.18,25.5-73.81-3.96-13.89-17.94-21.05-31.69-17.28-26.44,6.9-47.46,40.29-58.75,63.72-12.1,24.99-20.7,56.32-47.57,69.31-20.23,9.47-46.19,6.1-62.69-9.11-11.17-9.87-18.87-23.32-24.18-37.17-12.44-36.07-14.05-65.54-45.38-92.65-6.07-5.27-13.06-10.12-20.28-12.91-11.54-5.03-27.2-2.31-30.25,11.02l-.08.34Z"/>
    <path class="cls-2" d="M483.79,201.14c5.2,9.79,2.19,24.46-8.28,29.5-6.45,3.24-14,2.86-21.56,2.38-8.36-.62-16.72-1.44-25.11-1.46-11.11-.12-22.15,1.39-33.11,3.01-9.79,1.35-21.64,3.34-29.54-3.47-10.03-9.06-10.22-27.19-7.04-39.67,4.46-15.73,16.35-18.33,31.12-13.81,12.54,3.62,24.97,7.93,37.95,9.68,8.7,1.29,17.52,1.5,26.3,1.87,10.94.45,23.47,1.47,29.1,11.65l.17.32Z"/>
    <path class="cls-4" d="M487.73,178.91c14.65,7.23,12.85,31.68,11.13,45.45-1.31,8.44-4.29,18.62-12.69,22.28-7.56,3.23-16.63.3-24.43-1.43-25.99-6.42-52.72-4.89-78.26,2.68-12.44,3.76-25.84,6.72-31.77-8.04-6.19-15.23-6.99-61.99,2.42-75.51,4.48-6.68,11.85-7.74,19.38-5.28,2.93.89,5.9,2.17,8.83,3.5,25.66,13.23,53.04,17.67,81.7,14.86,7.74-.51,16.21-1.81,23.38,1.34l.32.15Z"/>
    <path class="cls-3" d="M344.72,342.03c4.59,12.51,2.35,28.78-.52,41.74-1.73,6.97-4.74,16.38-10.98,19.73-7.21,3.49-10.97-5.71-11.57-11.57-1.51-14.92,1.83-30.12,6.76-44.09,3.03-8.99,10.91-17.56,16.16-6.14l.14.33Z"/>
    <path class="cls-4" d="M503.95,170.94c6.87,16.35,3.08,50.64,1.13,68.81-1.33,8.41-2.41,20.35-11.21,23.94-3.03,1.08-6.62.62-10.34-.76-2.4-.88-4.84-2.09-7.29-3.35-32.78-18.78-71.87-15.86-104.24,3-4.11,2.29-8.66,5.16-12.98,6.42-12.22,3.86-15.62-9.57-16.35-19.04-1.89-29.07-1.59-58-.57-87.11.71-8.47,1.17-21.41,10.13-24.77,8.2-2.24,16.86,5.36,23.73,9.7,6.68,4.55,13.28,9.2,20.28,13.23,23.14,14.18,52.12,15.81,77.71,7.2,9.66-3.2,23.85-9.22,29.83,2.42l.17.31Z"/>
    <path class="cls-5" d="M520.43,380.83c3,5.94,5.26,12.06,7.54,18.54,2.62,7.79,5.98,17.4,4.59,25.48-1.9,9.84-9.46,5.95-12.97-.23-5.35-9-7-20.08-7.72-30.22-.4-6.29.05-29.54,8.39-13.91l.17.33Z"/>
    <path class="cls-4" d="M515.6,141.09c3.06,6.46.17,16.53.07,23.86-1.88,22.91-.73,45.8-3,68.65-1.94,11.5-.2,58.52-12.27,60.32-2.45-.09-5.27-2.8-8.21-6.71-3.93-5.25-7.82-11.12-12.33-16.04-26.9-29.57-81.34-30.38-108.96-1.5-26.06,25.33-11.35,63.01-13.11,94.72-1.53,20.92-5.14,45.52-19,61.84-6.17,7.71-18.84,9.56-24.29.07-16.63-32.5,11.87-100.12,17.63-135.14,2.48-14.12,2.7-28.63,2.57-42.98-.07-27.87.95-55.5,1.09-83.48-.11-22.01-2.73-44.19-2.96-66.04-.27-7.02,1.02-16.71,8.1-7.3,9.5,13.42,17.42,28.35,28.13,40.95,18.37,22.75,46.77,38.8,76.46,36.42,14.01-1.02,27.67-5.75,39.81-12.75,6.34-2.43,25.99-20.23,30.14-15.03l.11.14Z"/>
    <path class="cls-6" d="M561.45,69.98c9.11,15.92-16.18,43.11-28.02,52.93-15.19,12.85-10.79-2.13-8.13-12.25,3.32-13.04,9.39-26.4,18.42-35.8,4.17-4.35,12.2-10.63,17.55-5.1l.18.23Z"/>
    <path class="cls-4" d="M572.49,51.14c6.39,5.82,5.99,15.22,4.13,23.47-6.78,26.94-32.11,44.9-45.09,68.16-6.17,10.73-9.72,22.42-11.69,34.77-3.38,21.05-2.31,43.08-2.72,63.96-1.27,28.48-1.64,57.09,3.21,85.28,1.84,10.52,3.45,20.86,5.89,31.45,4.72,19.82,12.48,38.12,18.25,57.6,2.5,9.56,4.79,19.53,1.01,28.72-3.73,9.11-14.54,11.2-22.35,6.49-17.67-10.51-21.12-38.65-23.68-58.57-2.22-25.65-5.1-51.23-10.25-75.98-3.72-18.63-6.36-41.46-22.99-53.31-37.91-23-96.17-13.19-102.71,37.01-1.16,20.53,2.16,41.35.46,61.96-2.18,27.45-7.1,61.1-29.77,79.09-19.54,12.12-31.44-9.08-32.17-26.75-2.42-38.3,11.54-75.5,19.81-112.42,13.67-58.48,12.95-120.93,2.9-180.02-3.58-19.39-9.73-38.48-13.23-57.93-1.05-5.9-1.8-13.15.1-17.69,4.81-10.79,16.94-2.87,22.52,4.16,8.8,10.39,13.65,22.98,18.16,35.92,9.76,33.9,30.53,67.61,66.3,77.8,49.56,13.78,85.52-25.31,101.52-68.8,7.5-16.61,30.71-56.89,52.15-44.56l.24.2Z"/>
    <path class="cls-4" d="M579.11,40.73c5.22,3.73,7.47,10.35,7.79,16.59.68,21.19-12.75,40.87-25.45,57.01-29.56,33.97-39.48,55.11-40.78,100.56-2.49,64.01,5.54,128.54,26.12,189.06,2.43,7.28,5.1,14.63,6.94,22.08,4.56,15.61,1.32,34.9-17.13,37.94-22.19,1.94-31.36-26.22-36.43-43.5-3.3-12.18-4.96-24.18-6.78-36.63-4.99-32.36-8.61-65.02-15.99-96.94-4.41-19.03-16.57-26.53-35.02-30.41-10.16-2.36-20.61-3.42-30.99-1.89-26.52,3.65-42.77,22.89-44.3,49.28-1.47,26.64,3.36,53.44-1.26,79.88-4.01,22.3-9.98,49.27-28.47,64.36-7.88,5.85-18.09,8.33-26.26,3.31-24.17-19.04-11.3-77.17-5.44-103.96,5.96-25.24,12.71-50.44,16.75-76.08,9.66-56.98,7.87-116.76-8.46-172.48-4.25-14.96-9.23-29.73-12.95-44.84-1.79-7.41-3.79-17.43-.62-23.73,6.54-11.86,21.97-2.23,29.22,5.11,22.48,21.7,26.62,54.59,39.85,81.78,22.14,50.98,88.08,66.79,122.88,19.68,18.16-25.14,24.74-57.99,46.37-80.9,9.82-10.38,25.52-23.92,40.14-15.46l.27.19Z"/>
    <path class="cls-4" d="M580.06,32.32c26.54,15.05,5.36,55.94-7.84,74.22-9.07,12.67-20.43,23.85-29.48,36.58-24.84,33.93-22.6,78.98-19.12,119.83,4.11,47.45,11.58,94.8,27.31,139.91,4.96,14.48,10.75,30,9.11,45.45-1.46,20.81-22.19,26.08-38.31,16.98-6.25-3.55-11.01-8.95-14.81-15.23-5.27-8.77-8.5-18.99-10.8-28.93-9.41-45.37-12.3-92.08-22.96-137.19-3.67-16.01-14.75-23.12-30.43-26.44-19.99-4.52-43.4-3.05-58.77,11.7-16.38,15.45-14.93,40.47-13.58,61.59.77,13.49,1.02,27-.19,40.47-2.19,21.63-6.82,42.45-16.45,62.29-7.98,17.24-26.72,33.24-45.27,22.87-17.92-12.94-16.01-45.17-13.93-65.5,7.04-54.1,26.68-106.06,30.72-160.69,3.83-44.1-2.38-88.89-15.28-131.08-5.32-17.33-11.85-34.34-16.68-51.79-4.4-13.93-6.3-36.08,14.81-31.91,22.73,7.35,38.18,28.1,46.73,49.74,7.93,20.56,11.25,42.71,22.49,61.82,23.78,42.79,84.37,50.56,112.68,8.4,12.56-18.29,18.78-40.48,30.05-59.32,11.62-19.14,34.18-53.37,59.69-43.92l.31.14Z"/>
    <path class="cls-4" d="M593.06,38.6c12.87,28.66-15.91,68.56-34.84,89-6.96,7.91-13.85,15.97-19.2,25.07-25.31,44.6-13.63,100.54-8.85,149.67,4.8,38.63,14.27,76.59,27.64,113.1,1.45,4.37,2.79,8.81,3.81,13.37,1.76,7.82,2.58,16.19,1.41,23.64-2.45,20.78-24.5,25.57-40.85,17.12-12.17-6.34-19.43-19.07-24.04-31.69-3.98-11-6.05-22.38-8.03-33.85-7.74-41.76-10.53-84.76-21.01-125.93-4.9-13.96-19.89-18.07-33.57-20.44-40.08-6.41-65.8,14.07-63.55,56.03.55,19.25,2.35,38.48.48,57.71-2.33,22.91-7.37,45.3-17.92,66.1-8.55,17.6-28.3,33.31-47.24,22.61-9.61-6-13.95-19.58-15.58-32.68-2.54-22.03,1.51-43.41,5.51-64.94,14.51-68.38,37.04-137.53,23.31-207.97-6.84-38.84-21.25-75.31-32.47-113.02-11.04-32.79,10.33-41.95,36.01-23.27,15.96,11.6,27.15,28.93,33.81,47.33,10.78,31.95,15.24,70.5,47.73,88.01,22.36,13.18,52.68,12.21,71.95-6.19,17.32-15.9,24.01-39.28,33.97-59.9,10.05-23.48,57.76-88.63,81.35-49.2l.17.34Z"/>
    <path class="cls-4" d="M591.29,30.62c12.37,13.36,7.74,32.95,1.27,49.09-10.68,28.68-34.78,47.45-51.17,72.18-17.59,27.71-18.18,62.29-15.81,94.13,4.96,56.47,13.78,112.35,33.39,165.76,4.44,12.68,9.93,26.13,7.78,39.72-6.46,33.49-46.57,30.13-61.92,4.6-6.15-9.31-9.89-20.45-12.42-31.3-10.05-48.3-13.97-97.94-24.25-146.16-3.86-12.05-15.28-15.97-27.26-18.67-9.32-2.18-18.87-3.22-28.49-1.79-25,3.45-38.55,22.05-39.28,46.41-.82,19.14,1.84,38.14,1.2,57.26-.99,25.96-6.38,52.57-18.1,76.07-7.38,14.71-21.91,30.17-39.62,27.64-11.29-1.68-19.92-10.76-23.83-21.37-6.36-18.3-3.39-38.35-1.16-57.19,10.59-70.12,38.18-138.39,30.93-210.19-3.25-34.62-12.82-68.16-25.11-100.59-4.66-12.61-9.51-25.12-13.39-37.94-2.61-8.43-4.83-19.53-.05-27,4.38-6.92,12.6-8.39,20.63-6.09,22.73,7.46,40.27,27.58,50.18,48.86,14.75,32.85,16.71,76.4,49.53,98.21,17.23,11.55,43.11,12.78,61,2.08,26.21-14.84,33.28-46.35,46.54-71.57,9.53-18.93,20.75-36.67,37.49-49.06,11.92-9.14,29.93-14.8,41.67-3.36l.26.25Z"/>
    <path class="cls-4" d="M595.33,32.24c15.35,23.3-6.08,60.63-21.12,80.07-7.07,8.97-14.91,17.24-22.09,26.12-40.61,46.82-24.78,115.35-18.08,172.19,4.44,27.88,9.92,55.82,19.53,82.4,6.19,19.36,17.28,39.49,14.04,60.27-2.75,20.56-24.62,29.29-42.54,21.81-8.29-3.39-14.79-9.58-20.01-17.09-6.21-8.97-10.22-19.43-12.97-29.93-12.2-49.06-14.6-100.5-24.66-149.81-3.91-11.72-15.31-15.41-26.8-17.96-9.21-2.09-18.57-3.13-28.07-1.74-25.72,3.51-38.52,22.66-38.66,47.52.06,25.35,3.47,50.61-.6,75.89-3.48,22.05-8.83,45.14-20.9,64.45-18.13,28.54-50.62,28.93-61.68-5.87-4.16-13.98-3.06-28.73-1.62-43.01,8.52-72.59,41.03-142.68,33.08-216.84-3.2-34.4-12.47-67.78-23.77-100.34-5.5-16.66-12.61-32.68-17.87-49.36-5.91-18.02,4.2-32.5,23.69-27.51,21.31,6.72,38.02,24.97,48.76,44.08,19.2,34.88,13.81,82.12,52.33,104.72,29.58,18.05,63.67,8.45,81.86-20.35,10.42-17.56,15.84-36.71,26.18-55.08,12.87-23.2,28.47-46.46,54.25-53.88,9.91-2.62,21.56.45,27.5,8.96l.22.3Z"/>
  </g>
  <line class="cls-4" x1="424.47" y1="213.88" x2="424.52" y2="203.88"/>
  <line class="cls-4" x1="429.51" y1="208.91" x2="419.51" y2="208.86"/>
  <line class="cls-4" x1="520.55" y1="405.64" x2="520.57" y2="401.23"/>
  <line class="cls-4" x1="522.77" y1="403.45" x2="518.36" y2="403.42"/>
  <line class="cls-4" x1="543.44" y1="98.83" x2="543.48" y2="91.99"/>
  <line class="cls-4" x1="546.88" y1="95.43" x2="540.05" y2="95.4"/>
  <line class="cls-4" x1="333.66" y1="373.91" x2="333.7" y2="366.48"/>
  <line class="cls-4" x1="337.4" y1="370.21" x2="329.97" y2="370.18"/>
  <line class="cls-4" x1="120.21" y1="135.62" x2="120.21" y2="151.62"/>
  <line class="cls-4" x1="112.2" y1="143.62" x2="128.2" y2="143.62"/>
</svg>