<?xml version="1.0" encoding="UTF-8"?>
<svg xmlns="http://www.w3.org/2000/svg" viewBox="0 0 804.25 804">
  <defs>
    <style>
      .cls-1 {
        stroke-dasharray: 5.05 5.05;
      }

      .cls-1, .cls-2, .cls-3, .cls-4, .cls-5, .cls-6, .cls-7, .cls-8, .cls-9, .cls-10, .cls-11, .cls-12 {
        fill: none;
        stroke-miterlimit: 10;
      }

      .cls-1, .cls-9, .cls-11 {
        stroke: #4d94ce;
      }

      .cls-2 {
        stroke-dasharray: 4.93 4.93;
      }

      .cls-2, .cls-4, .cls-7, .cls-8, .cls-10, .cls-12 {
        stroke: #e15241;
      }

      .cls-3 {
        stroke-width: 4px;
      }

      .cls-3, .cls-5, .cls-6 {
        stroke: #7f9b64;
      }

      .cls-13 {
        fill: #7f9b64;
      }

      .cls-4 {
        stroke-dasharray: 5.12 5.12;
      }

      .cls-5 {
        stroke-dasharray: 9.98 9.98;
      }

      .cls-7, .cls-9 {
        stroke-width: 5px;
      }

      .cls-8 {
        stroke-dasharray: 5.2 5.2;
      }

      .cls-10 {
        stroke-dasharray: 4.84 4.84;
      }
    </style>
  </defs>
  <g id="Layer_1" data-name="Layer 1">
    <g>
      <path class="cls-11" d="M344.79,299.25c-1.14,73.12-70.55,123.3-135.97,141.22-6.87,2.14-13.68,4.64-17.43,10.73-4.86,8.4-2.79,18.08-2.69,28.72.37,11.83.22,23.68-.46,35.5-2.29,34.12-7.79,68.58-19.76,100.7-2.93,6.88-7.23,13.88-13.35,17.97-6.19,4.26-13.93,4.48-19.68-.04-7.72-5.83-10.46-18.28-11.54-28.05-6.18-70.68-14.88-141.16-18.59-212.04-5.11-68.82,2.92-146.05,66.41-184.65,71.1-45.43,173.8,2.39,173.07,89.53v.4Z"/>
      <path class="cls-11" d="M344.64,300.1c1.62-54.29-44.02-101.15-96.6-107.92-56.45-7.97-109.64,30.26-129.84,81.81-8.54,20.09-12.77,42.43-13.8,64.29-2.78,60.04,5.8,120.72,11.26,180.41,2.49,26.25,4.84,52.59,7.63,78.81,1.15,9.51,1.93,19.14,5.74,27.87,4.68,11.1,16,15.93,26.1,8.91,24.46-16.89,33.62-100.02,33.87-129.95.19-8.33.13-16.64-.18-24.96-.12-11.55-2.83-22.38,4.5-30.84,4.51-4.88,11.52-6.88,18.1-8.87,65-17.92,130.93-67.19,133.23-139.17v-.4Z"/>
      <path class="cls-1" d="M169.78,356.33c-16.58-40.39,14.25-97.73,59.5-95.41,16.39.48,32.38,9.48,40.03,24.1,20.41,39.39-17.97,83.28-56.71,90.33-17.51,3.73-34.95-1.88-42.65-18.67l-.17-.35Z"/>
      <path class="cls-11" d="M154.65,380.13c-29.8-54.76,12.38-140.73,76.03-139.58,20.61.11,41.08,10.16,52.89,27.08,14.52,19.75,15.1,48.1,4.04,69.68-14.57,29.12-43.32,48.75-74.14,58.2-22.02,6.79-46.25,6.41-58.63-15.05l-.2-.33Z"/>
      <path class="cls-11" d="M137.76,378.24c-6.81-33.93-4.55-71.49,13.08-101.95,20.49-36.36,65.38-59.29,105.92-45.2,35.08,11.38,58.02,47.79,51.36,84.36-8.57,50.29-56.24,82.07-102.26,95.47-10.27,3.09-20.99,5.99-31.76,5.93-22.35.11-32.14-18.88-36.25-38.21l-.09-.39Z"/>
      <path class="cls-11" d="M151.31,432.07c-23.64-11.62-27.57-62.58-26.53-87.47.63-47.95,22.33-99.14,67.96-119.65,57.2-27.12,127.62,12.34,126.53,77.55-1.13,49.25-41.19,89.19-84.53,107.45-19.22,8.45-39.6,13.74-59.3,20.9-7.64,2.52-16.3,4.52-23.82,1.35l-.31-.13Z"/>
      <path class="cls-11" d="M142.54,454.17c-4.54-4.08-7.64-11.12-9.77-17.13-3.3-9.44-5.67-19.25-7.81-29.03-4.94-23.2-7.19-46.94-5.94-70.67,1.64-44.6,21.36-90.45,59.85-113.83,19.45-12.14,43.27-17.72,65.91-14.67,34.09,4.08,65,27.43,76.77,60.21,14.48,39.32-1.9,82.19-30.27,110.98-23.2,23.59-53.5,37.88-84.64,47.56-12.47,4.01-24.63,9.42-34.51,18.19-8.67,7.6-19.27,17.4-29.35,8.61l-.24-.22Z"/>
      <path class="cls-11" d="M145.49,508.81c-3.84-4.09-6.48-11.53-8.23-17.4-2.49-8.2-4.56-16.69-6.78-25.1-12.14-42.95-18.51-87.8-16.04-132.44,2.77-53.29,29.99-106.25,81.36-125.41,28.6-10.77,60.99-8.67,87.54,6.41,38.09,21.08,57.74,66.99,46.15,108.8-12.84,53.19-61.97,89.12-111.9,105.4-10.77,3.85-22.51,6.78-31.6,13.94-7.73,5.98-12.23,15.02-15,24.23-3.25,10.39-5.18,20.94-8.44,30.97-2.2,7.32-8.8,19.23-16.85,10.81l-.2-.21Z"/>
      <path class="cls-11" d="M134.99,546.18c-3.77-15.02-6.46-30.92-8.68-46.48-3.57-25.7-7.85-51.22-11.07-76.98-4.05-34.08-7.4-68.97-3.34-103.3,3.57-31.32,15.46-62.14,37.92-84.82,31.65-32.85,81.52-47.83,124.54-28.95,52.75,22.1,76.64,83.27,53.85,135.84-21.31,51.56-72.6,78.56-123.01,94.8-5.12,1.82-10.42,3.98-14.66,7.19-8.62,6.16-11.45,16.88-12.46,27.02-1.19,10.77-1.87,21.62-3,32.41-1.99,17.02-6.88,54.31-18.05,66.12-12.92,11.46-19.67-12.82-21.93-22.47l-.1-.39Z"/>
      <path class="cls-11" d="M126.83,549.53c-6.62-43.2-11.4-87.05-15.49-130.62-4.66-55.13-10.63-116.04,19.32-164.63,13.39-21.79,33.72-39.73,56.98-49.98,84.97-38.56,176.02,38.63,147.01,128.6-18.44,56.88-74.68,90-129.41,105.87-16.02,5.03-22.73,13.86-23.26,30.51-.54,11.68.06,23.6-.41,35.27-1.18,27.22-5.44,54.68-14.53,80.42-2.14,5.84-4.74,12.06-8.41,16.9-5.29,7.37-13.52,9.37-18.89,1.43-5.56-8.43-6.51-18.87-8.53-28.76-1.44-8.15-2.97-16.59-4.32-24.6l-.07-.4Z"/>
      <path class="cls-11" d="M128.69,600.42c-8.29-53.25-12.8-107.5-17.89-161.19-4.55-55.29-13.88-115.69,8.47-167.56,17.27-40.3,55.73-71.84,99.32-78.15,73.73-11.04,139.04,57.2,120.99,130.4-14.86,61.8-74.49,99.35-132.53,115.8-5.56,1.75-10.5,3.78-13.88,6.89-8.86,8.13-5.88,21.74-6.22,32.76,0,9.64-.43,19.28-1.08,28.86-1.95,29.44-6.23,59.01-15.09,87.2-1.85,5.79-3.98,11.64-6.81,16.97-5.77,11.87-19.28,21.83-28.85,7.25-3.46-5.33-5.18-12.65-6.35-18.85l-.07-.39Z"/>
      <path class="cls-9" d="M124.65,599.18c-6.26-52.69-11.03-106.11-15.22-159.07-4.09-55.33-13.62-115.72,8.36-167.63,17.67-41.91,57.89-74.75,103.36-80.26,73.68-9.05,137.34,58.88,119.71,131.69-14.76,62.41-75.29,101.01-134.24,116.94-5.3,1.63-9.92,3.63-13.09,6.66-5.07,4.58-6.08,12.13-5.87,19.04,2.8,48.83-2.67,98.78-18.95,145.01-3.03,7.74-7.3,16.08-14.1,20.65-8.67,6.09-19.06,2.27-23.81-7.52-3.9-7.57-4.97-16.84-6.09-25.12l-.05-.4Z"/>
    </g>
    <g>
      <path class="cls-12" d="M379.91,191.88c5.18-24.94,37.76-10.83,50.25.76,45.3,34.77,31.82,96.69,69.84,129.8,23.46,19.93,61.59,18.55,81.41-5.45,8.72-9.93,14.02-22.31,19.12-34.37,7.6-18.67,16.81-37.69,29.11-54.3,9.08-12.17,20.49-24.4,34.81-29.48,11.64-4.26,27.14-1.8,33.96,9,12.52,22.62-8.47,62.57-23.83,82.67-10.1,12.86-22.52,24.27-31.15,38.25-31.73,51.57-8.49,156.52,3.52,214.28,3.65,15.34,8.58,30.21,14.6,44.81,3.51,8.87,7.19,17.98,8.38,27.46,4.61,28.79-22.74,47.6-48.11,33.26-11.59-6.43-19.31-18.2-24.16-30.34-17.14-51.35-18.48-107.15-27.98-160.23-.51-3.36-.78-5.15-.72-4.81,4.34,28.7,9.27,59.23,13.77,88.13,5.31,29.68,5.01,62.09,20.17,88.92,17.46,32.78,69.31,32.04,67.34-11.49-2.21-21.09-12.95-40.33-18.29-60.71-9.64-31.57-15.42-64.36-19.71-97.17-4.19-41.13-11.22-88.57,8.15-126.75,9.98-18.5,26.18-31.91,38.15-48.71,12.91-18.23,27.39-42.87,23.2-66.22-3.2-18.55-23-26.97-39.67-18.61-22.77,11.56-37.3,34.67-49.62,56.23-9.13,16.62-14.35,35.22-24.44,51.33-13.37,22.74-41.66,33.73-66.67,25.4-51.19-14.6-47.27-74.52-68.31-113.6-10.21-17.39-25.5-33.62-44.79-40.45-18.14-6.45-33.04,4.9-28.11,24.71,4.21,17.24,13.26,33.21,18.65,49.97,11.38,32.18,20.87,65.41,24.27,99.49,7.89,70.4-20.65,137.4-30.95,205.98-3.67,25.95-6.93,62.61,14.83,80.55,16.58,10.5,37.86-2.43,47.02-17.6,19.82-33.54,25.14-74.38,23.09-112.62-.77-12.7-2.64-25.52-.7-38.21,6.18-41.75,50.58-43.09,82.73-30.7-2.89-.99-8.92-2.74-12.56-3.73-23.77-7.51-56.5-3.81-66.56,22.41-7.29,18.53-3.38,39.94-3.2,59.6,1.15,31.52-3.66,63.74-17.03,92.56-13.49,31.8-50.94,46.52-66.95,7.63-10.29-32.15.66-66.44,6.74-98.42,32.06-121.57,36.26-177.63-11.67-296.54-3.75-10.41-9.02-21.03-7.96-32.33l.05-.35Z"/>
      <path class="cls-7" d="M379.54,191.93c1.55-14.64,17.2-16.11,28.91-11.85,13.46,4.52,24.3,13.81,33.53,24.28,33.32,34.64,22.64,97.17,64.85,123.15,17.69,10.97,40.66,12.36,58.88,2.41,14.91-7.85,24.23-22.63,30.76-37.72,7.16-16.64,13.16-32.13,22.47-47.57,14.69-23.75,33.85-50.1,61.49-47.56,7.73.91,15.6,5.3,19.04,12.09,10.6,23.17-9.64,61.88-25.26,82.04-10.09,12.67-22.41,23.92-30.96,37.76-10.29,16.22-14.17,35.54-15.13,54.51-1.82,60.3,8.35,121.23,24.26,179.23,4.89,17.32,14.42,33.44,17.57,51.26,3.18,16.26-4.93,34.82-22.02,38.56-22.27,5.43-41.48-12.24-49.28-31.84-3.21-7.41-5.39-15.16-7.26-22.98-9.99-43.6-13.56-89.3-20.77-133.52-.95-6.05-2.27-12.23-6.14-17.06-5.65-7.02-14.63-9.14-23.83-11.32-19.28-4.75-43.61-2.08-55.87,14.8-12.73,17.39-8.9,41.15-8.3,61.47,1.4,24.77-.33,49.52-7.17,73.49-6.48,22.48-16.91,50.7-42,56.98-17.79,3.66-32.14-11.26-36.28-27.74-3-10.92-2.87-22.35-2.06-33.55,7.17-73.99,40.38-144.83,34.74-220.02-3.28-45.87-18.13-89.9-34.41-132.59-4.09-11.78-10.73-23.71-9.82-36.36l.04-.36Z"/>
      <path class="cls-12" d="M379.78,190.91c-2.27,11.16,3.77,23.09,7.81,33.64,47.04,116.72,44.41,168.07,13.96,287.79-3.46,14.91-6.72,29.84-9.09,44.95-2.51,17.48-5.07,35.29-1.89,52.82,2.39,12.13,7.55,24.04,17.3,30.01,16.46,9.7,36.59-2.12,45.53-17.13,18.37-30.52,25.26-71.64,24.02-106.95-.39-22.22-6.84-48.4,8.41-67.14,12.96-15.63,35.87-17.51,54.57-13.09,17.59,3.52,27.83,8.94,30.11,27.6,6.55,41.92,13.21,83.89,19.57,125.77,1.55,9.15,3.46,18.37,6.67,27.07,6.96,20.76,26.99,41.41,50.45,36.5,18.05-3.92,25.67-21.83,22.5-39.07-3.85-21.89-14.9-41.64-20.59-63.08-9.76-35.42-15.43-71.99-18.89-108.57-3.47-40-6.21-83.65,17.12-117.97,8.15-12.34,18.95-22.95,27.84-34.63,13.97-18.62,32.21-50.18,25.5-73.81-3.96-13.89-17.94-21.05-31.69-17.28-26.44,6.9-47.46,40.29-58.75,63.72-12.1,24.99-20.7,56.32-47.57,69.31-20.23,9.47-46.19,6.1-62.69-9.11-11.17-9.87-18.87-23.32-24.18-37.17-12.44-36.07-14.05-65.54-45.38-92.65-6.07-5.27-13.06-10.12-20.28-12.91-11.54-5.03-27.2-2.31-30.25,11.02l-.08.34Z"/>
      <path class="cls-2" d="M585.12,376.63c5.2,9.79,2.19,24.46-8.28,29.5-6.45,3.24-14,2.86-21.56,2.38-8.36-.62-16.72-1.44-25.11-1.46-11.11-.12-22.15,1.39-33.11,3.01-9.79,1.35-21.64,3.34-29.54-3.47-10.03-9.06-10.22-27.19-7.04-39.67,4.46-15.73,16.35-18.33,31.12-13.81,12.54,3.62,24.97,7.93,37.95,9.68,8.7,1.29,17.52,1.5,26.3,1.87,10.94.45,23.47,1.47,29.1,11.65l.17.32Z"/>
      <path class="cls-12" d="M589.06,354.4c14.65,7.23,12.85,31.68,11.13,45.45-1.31,8.44-4.29,18.62-12.69,22.28-7.56,3.23-16.63.3-24.43-1.43-25.99-6.42-52.72-4.89-78.26,2.68-12.44,3.76-25.84,6.72-31.77-8.04-6.19-15.23-6.99-61.99,2.42-75.51,4.48-6.68,11.85-7.74,19.38-5.28,2.93.89,5.9,2.17,8.83,3.5,25.66,13.23,53.04,17.67,81.7,14.86,7.74-.51,16.21-1.81,23.38,1.34l.32.15Z"/>
      <path class="cls-10" d="M446.05,517.53c4.59,12.51,2.35,28.78-.52,41.74-1.73,6.97-4.74,16.38-10.98,19.73-7.21,3.49-10.97-5.71-11.57-11.57-1.51-14.92,1.83-30.12,6.76-44.09,3.03-8.99,10.91-17.56,16.16-6.14l.14.33Z"/>
      <path class="cls-12" d="M605.28,346.43c6.87,16.35,3.08,50.64,1.13,68.81-1.33,8.41-2.41,20.35-11.21,23.94-3.03,1.08-6.62.62-10.34-.76-2.4-.88-4.84-2.09-7.29-3.35-32.78-18.78-71.87-15.86-104.24,3-4.11,2.29-8.66,5.16-12.98,6.42-12.22,3.86-15.62-9.57-16.35-19.04-1.89-29.07-1.59-58-.57-87.11.71-8.47,1.17-21.41,10.13-24.77,8.2-2.24,16.86,5.36,23.73,9.7,6.68,4.55,13.28,9.2,20.28,13.23,23.14,14.18,52.12,15.81,77.71,7.2,9.66-3.2,23.85-9.22,29.83,2.42l.17.31Z"/>
      <path class="cls-8" d="M621.76,556.32c3,5.94,5.26,12.06,7.54,18.54,2.62,7.79,5.98,17.4,4.59,25.48-1.9,9.84-9.46,5.95-12.97-.23-5.35-9-7-20.08-7.72-30.22-.4-6.29.05-29.54,8.39-13.91l.17.33Z"/>
      <path class="cls-12" d="M616.93,316.58c3.06,6.46.17,16.53.07,23.86-1.88,22.91-.73,45.8-3,68.65-1.94,11.5-.2,58.52-12.27,60.32-2.45-.09-5.27-2.8-8.21-6.71-3.93-5.25-7.82-11.12-12.33-16.04-26.9-29.57-81.34-30.38-108.96-1.5-26.06,25.33-11.35,63.01-13.11,94.72-1.53,20.92-5.14,45.52-19,61.84-6.17,7.71-18.84,9.56-24.29.07-16.63-32.5,11.87-100.12,17.63-135.14,2.48-14.12,2.7-28.63,2.57-42.98-.07-27.87.95-55.5,1.09-83.48-.11-22.01-2.73-44.19-2.96-66.04-.27-7.02,1.02-16.71,8.1-7.3,9.5,13.42,17.42,28.35,28.13,40.95,18.37,22.75,46.77,38.8,76.46,36.42,14.01-1.02,27.67-5.75,39.81-12.75,6.34-2.43,25.99-20.23,30.14-15.03l.11.14Z"/>
      <path class="cls-4" d="M662.78,245.47c9.11,15.92-16.18,43.11-28.02,52.93-15.19,12.85-10.79-2.13-8.13-12.25,3.32-13.04,9.39-26.4,18.42-35.8,4.17-4.35,12.2-10.63,17.55-5.1l.18.23Z"/>
      <path class="cls-12" d="M673.83,226.63c6.39,5.82,5.99,15.22,4.13,23.47-6.78,26.94-32.11,44.9-45.09,68.16-6.17,10.73-9.72,22.42-11.69,34.77-3.38,21.05-2.31,43.08-2.72,63.96-1.27,28.48-1.64,57.09,3.21,85.28,1.84,10.52,3.45,20.86,5.89,31.45,4.72,19.82,12.48,38.12,18.25,57.6,2.5,9.56,4.79,19.53,1.01,28.72-3.73,9.11-14.54,11.2-22.35,6.49-17.67-10.51-21.12-38.65-23.68-58.57-2.22-25.65-5.1-51.23-10.25-75.98-3.72-18.63-6.36-41.46-22.99-53.31-37.91-23-96.17-13.19-102.71,37.01-1.16,20.53,2.16,41.35.46,61.96-2.18,27.45-7.1,61.1-29.77,79.09-19.54,12.12-31.44-9.08-32.17-26.75-2.42-38.3,11.54-75.5,19.81-112.42,13.67-58.48,12.95-120.93,2.9-180.02-3.58-19.39-9.73-38.48-13.23-57.93-1.05-5.9-1.8-13.15.1-17.69,4.81-10.79,16.94-2.87,22.52,4.16,8.8,10.39,13.65,22.98,18.16,35.92,9.76,33.9,30.53,67.61,66.3,77.8,49.56,13.78,85.52-25.31,101.52-68.8,7.5-16.61,30.71-56.89,52.15-44.56l.24.2Z"/>
      <path class="cls-12" d="M680.44,216.22c5.22,3.73,7.47,10.35,7.79,16.59.68,21.19-12.75,40.87-25.45,57.01-29.56,33.97-39.48,55.11-40.78,100.56-2.49,64.01,5.54,128.54,26.12,189.06,2.43,7.28,5.1,14.63,6.94,22.08,4.56,15.61,1.32,34.9-17.13,37.94-22.19,1.94-31.36-26.22-36.43-43.5-3.3-12.18-4.96-24.18-6.78-36.63-4.99-32.36-8.61-65.02-15.99-96.94-4.41-19.03-16.57-26.53-35.02-30.41-10.16-2.36-20.61-3.42-30.99-1.89-26.52,3.65-42.77,22.89-44.3,49.28-1.47,26.64,3.36,53.44-1.26,79.88-4.01,22.3-9.98,49.27-28.47,64.36-7.88,5.85-18.09,8.33-26.26,3.31-24.17-19.04-11.3-77.17-5.44-103.96,5.96-25.24,12.71-50.44,16.75-76.08,9.66-56.98,7.87-116.76-8.46-172.48-4.25-14.96-9.23-29.73-12.95-44.84-1.79-7.41-3.79-17.43-.62-23.73,6.54-11.86,21.97-2.23,29.22,5.11,22.48,21.7,26.62,54.59,39.85,81.78,22.14,50.98,88.08,66.79,122.88,19.68,18.16-25.14,24.74-57.99,46.37-80.9,9.82-10.38,25.52-23.92,40.14-15.46l.27.19Z"/>
      <path class="cls-12" d="M681.39,207.81c26.54,15.05,5.36,55.94-7.84,74.22-9.07,12.67-20.43,23.85-29.48,36.58-24.84,33.93-22.6,78.98-19.12,119.83,4.11,47.45,11.58,94.8,27.31,139.91,4.96,14.48,10.75,30,9.11,45.45-1.46,20.81-22.19,26.08-38.31,16.98-6.25-3.55-11.01-8.95-14.81-15.23-5.27-8.77-8.5-18.99-10.8-28.93-9.41-45.37-12.3-92.08-22.96-137.19-3.67-16.01-14.75-23.12-30.43-26.44-19.99-4.52-43.4-3.05-58.77,11.7-16.38,15.45-14.93,40.47-13.58,61.59.77,13.49,1.02,27-.19,40.47-2.19,21.63-6.82,42.45-16.45,62.29-7.98,17.24-26.72,33.24-45.27,22.87-17.92-12.94-16.01-45.17-13.93-65.5,7.04-54.1,26.68-106.06,30.72-160.69,3.83-44.1-2.38-88.89-15.28-131.08-5.32-17.33-11.85-34.34-16.68-51.79-4.4-13.93-6.3-36.08,14.81-31.91,22.73,7.35,38.18,28.1,46.73,49.74,7.93,20.56,11.25,42.71,22.49,61.82,23.78,42.79,84.37,50.56,112.68,8.4,12.56-18.29,18.78-40.48,30.05-59.32,11.62-19.14,34.18-53.37,59.69-43.92l.31.14Z"/>
      <path class="cls-12" d="M694.39,214.09c12.87,28.66-15.91,68.56-34.84,89-6.96,7.91-13.85,15.97-19.2,25.07-25.31,44.6-13.63,100.54-8.85,149.67,4.8,38.63,14.27,76.59,27.64,113.1,1.45,4.37,2.79,8.81,3.81,13.37,1.76,7.82,2.58,16.19,1.41,23.64-2.45,20.78-24.5,25.57-40.85,17.12-12.17-6.34-19.43-19.07-24.04-31.69-3.98-11-6.05-22.38-8.03-33.85-7.74-41.76-10.53-84.76-21.01-125.93-4.9-13.96-19.89-18.07-33.57-20.44-40.08-6.41-65.8,14.07-63.55,56.03.55,19.25,2.35,38.48.48,57.71-2.33,22.91-7.37,45.3-17.92,66.1-8.55,17.6-28.3,33.31-47.24,22.61-9.61-6-13.95-19.58-15.58-32.68-2.54-22.03,1.51-43.41,5.51-64.94,14.51-68.38,37.04-137.53,23.31-207.97-6.84-38.84-21.25-75.31-32.47-113.02-11.04-32.79,10.33-41.95,36.01-23.27,15.96,11.6,27.15,28.93,33.81,47.33,10.78,31.95,15.24,70.5,47.73,88.01,22.36,13.18,52.68,12.21,71.95-6.19,17.32-15.9,24.01-39.28,33.97-59.9,10.05-23.48,57.76-88.63,81.35-49.2l.17.34Z"/>
      <path class="cls-12" d="M692.62,206.11c12.37,13.36,7.74,32.95,1.27,49.09-10.68,28.68-34.78,47.45-51.17,72.18-17.59,27.71-18.18,62.29-15.81,94.13,4.96,56.47,13.78,112.35,33.39,165.76,4.44,12.68,9.93,26.13,7.78,39.72-6.46,33.49-46.57,30.13-61.92,4.6-6.15-9.31-9.89-20.45-12.42-31.3-10.05-48.3-13.97-97.94-24.25-146.16-3.86-12.05-15.28-15.97-27.26-18.67-9.32-2.18-18.87-3.22-28.49-1.79-25,3.45-38.55,22.05-39.28,46.41-.82,19.14,1.84,38.14,1.2,57.26-.99,25.96-6.38,52.57-18.1,76.07-7.38,14.71-21.91,30.17-39.62,27.64-11.29-1.68-19.92-10.76-23.83-21.37-6.36-18.3-3.39-38.35-1.16-57.19,10.59-70.12,38.18-138.39,30.93-210.19-3.25-34.62-12.82-68.16-25.11-100.59-4.66-12.61-9.51-25.12-13.39-37.94-2.61-8.43-4.83-19.53-.05-27,4.38-6.92,12.6-8.39,20.63-6.09,22.73,7.46,40.27,27.58,50.18,48.86,14.75,32.85,16.71,76.4,49.53,98.21,17.23,11.55,43.11,12.78,61,2.08,26.21-14.84,33.28-46.35,46.54-71.57,9.53-18.93,20.75-36.67,37.49-49.06,11.92-9.14,29.93-14.8,41.67-3.36l.26.25Z"/>
      <path class="cls-12" d="M696.66,207.73c15.35,23.3-6.08,60.63-21.12,80.07-7.07,8.97-14.91,17.24-22.09,26.12-40.61,46.82-24.78,115.35-18.08,172.19,4.44,27.88,9.92,55.82,19.53,82.4,6.19,19.36,17.28,39.49,14.04,60.27-2.75,20.56-24.62,29.29-42.54,21.81-8.29-3.39-14.79-9.58-20.01-17.09-6.21-8.97-10.22-19.43-12.97-29.93-12.2-49.06-14.6-100.5-24.66-149.81-3.91-11.72-15.31-15.41-26.8-17.96-9.21-2.09-18.57-3.13-28.07-1.74-25.72,3.51-38.52,22.66-38.66,47.52.06,25.35,3.47,50.61-.6,75.89-3.48,22.05-8.83,45.14-20.9,64.45-18.13,28.54-50.62,28.93-61.68-5.87-4.16-13.98-3.06-28.73-1.62-43.01,8.52-72.59,41.03-142.68,33.08-216.84-3.2-34.4-12.47-67.78-23.77-100.34-5.5-16.66-12.61-32.68-17.87-49.36-5.91-18.02,4.2-32.5,23.69-27.51,21.31,6.72,38.02,24.97,48.76,44.08,19.2,34.88,13.81,82.12,52.33,104.72,29.58,18.05,63.67,8.45,81.86-20.35,10.42-17.56,15.84-36.71,26.18-55.08,12.87-23.2,28.47-46.46,54.25-53.88,9.91-2.62,21.56.45,27.5,8.96l.22.3Z"/>
    </g>
    <line class="cls-12" x1="525.8" y1="389.37" x2="525.85" y2="379.37"/>
    <line class="cls-12" x1="530.84" y1="384.4" x2="520.84" y2="384.35"/>
    <line class="cls-12" x1="621.88" y1="581.13" x2="621.9" y2="576.72"/>
    <line class="cls-12" x1="624.1" y1="578.94" x2="619.69" y2="578.92"/>
    <line class="cls-12" x1="644.89" y1="274.25" x2="644.93" y2="267.41"/>
    <line class="cls-12" x1="648.21" y1="270.92" x2="641.38" y2="270.89"/>
    <line class="cls-12" x1="434.99" y1="549.4" x2="435.03" y2="541.97"/>
    <line class="cls-12" x1="438.73" y1="545.7" x2="431.3" y2="545.67"/>
    <line class="cls-11" x1="221.54" y1="311.11" x2="221.54" y2="327.11"/>
    <line class="cls-11" x1="213.53" y1="319.11" x2="229.53" y2="319.11"/>
    <rect class="cls-3" x="2" y="2" width="800" height="800" rx="49.37" ry="49.37"/>
    <path class="cls-13" d="M9.04,168.03c7.64-11.3,15.51-22.5,24.53-32.76s18.64-19.1,30.28-25.52c5.71-3.15,11.81-5.58,18.16-7.09,8.05-1.91,16.31-2.06,24.54-2.03,8.35.03,16.71.1,24.97-1.33,7.21-1.25,14.22-3.45,21.01-6.14,13.75-5.46,26.61-12.86,39.95-19.21,6.86-3.26,13.87-6.24,21.13-8.51,7.82-2.44,15.87-4.13,23.97-5.31,16.45-2.4,33.11-2.77,49.7-3.58,14.61-.71,29.26-1.72,43.57-4.91,12.44-2.77,24.68-7,35.76-13.35s20.2-14.28,26.89-24.64c1.64-2.55,3.09-5.21,4.36-7.96.4-.87-.89-1.63-1.3-.76-5.25,11.37-13.79,20.77-24.05,27.87-10.53,7.28-22.54,12.23-34.85,15.6-13.67,3.74-27.69,5.3-41.8,6.17-16.6,1.02-33.26,1.22-49.81,2.98s-31.29,5.06-45.98,11.31c-13.71,5.83-26.61,13.34-40.16,19.51-6.73,3.06-13.64,5.78-20.8,7.7-7.75,2.08-15.61,2.93-23.62,3.04-8.6.12-17.24-.33-25.81.68-6.68.78-13.18,2.52-19.38,5.14-11.99,5.08-22.42,13.24-31.5,22.47-9.55,9.7-17.77,20.63-25.53,31.78-1.87,2.68-3.71,5.38-5.54,8.08-.54.8.76,1.55,1.3.76h0Z"/>
    <path class="cls-13" d="M4.03,695.95c23.11,9.42,45.14,21.29,68.14,30.99,11.37,4.79,22.98,9.13,34.96,12.15,12.85,3.24,26.18,4.67,39.34,5.99,28.42,2.86,57.02,3.87,85.56,4.81,28.71.95,57.44,1.43,86.17,1.47,28.73.03,57.46-.4,86.18-1.27s57.46-2.14,86.17-3.43c28.79-1.29,57.58-2.59,86.38-3.89,14.35-.65,28.71-1.29,43.06-1.94,14.09-.63,28.19-1.17,42.26-2.19s27.32-2.48,40.78-5.08c10.82-2.09,21.52-4.98,32.06-8.2,10.16-3.11,20.19-6.66,29.91-10.96s18.82-9.14,27.09-15.49c3.55-2.73,6.9-5.73,9.86-9.09.64-.72-.42-1.79-1.06-1.06-6.49,7.34-14.7,12.98-23.22,17.71-9.47,5.25-19.5,9.44-29.69,13.06-22,7.82-44.77,13.37-67.97,15.99-13.74,1.55-27.56,2.33-41.37,2.97-14.27.67-28.54,1.29-42.8,1.93-28.63,1.29-57.25,2.58-85.88,3.87-28.55,1.29-57.1,2.61-85.66,3.64-28.72,1.03-57.45,1.7-86.18,1.88s-57.13-.1-85.68-.82c-28.44-.72-56.93-1.66-85.31-3.66-14.29-1.01-28.57-2.37-42.75-4.44-12.12-1.77-23.85-4.83-35.39-8.95-23.71-8.48-46.06-20.23-68.94-30.65-5.17-2.35-10.37-4.63-15.62-6.78-.89-.36-1.28,1.09-.4,1.45h0Z"/>
    <path class="cls-13" d="M373.96,33.68c29.14.58,58.23,2.89,87.17,6.31s58.02,8,86.87,13.01c28.53,4.96,57.06,10.07,85.46,15.74,13.87,2.77,27.7,5.88,41.26,9.93,13.46,4.02,26.37,9.46,39.56,14.22,12.89,4.66,26.06,8.01,39.77,8.88s27.02-.43,40.05-3.81c3.24-.84,6.45-1.82,9.61-2.92.91-.31.52-1.76-.4-1.45-12.9,4.47-26.48,6.81-40.14,6.93s-27.38-2.14-40.51-6.34-26.11-9.99-39.38-14.39-27.03-7.81-40.79-10.73c-13.88-2.94-27.85-5.46-41.8-8.05s-28.72-5.31-43.09-7.85c-28.65-5.07-57.38-9.75-86.24-13.42s-57.64-6.29-86.6-7.28c-3.6-.12-7.21-.22-10.81-.29-.97-.02-.97,1.48,0,1.5h0Z"/>
  </g>
  <g id="Layer_3" data-name="Layer 3">
    <g>
      <path class="cls-6" d="M113.55,630.41c-54.94-46.94-45.17-123.51-35.81-187.61,4.45-30.51,8.56-61.05,10.9-91.8,2.45-32.28,3.26-65.7,13.71-96.64,23.01-68.12,95.08-94.3,161.96-96.64,32.15-1.12,64.24,85.74,96.47,85.62,32.81-.12-17.54-69.29,12.9-80.87,93.65-35.61,128.24,113.7,150.39,119.37,45.72,11.7,102.14-132.18,171.84-94.66,28.51,15.35,19.46,38.91,19.1,70.37-.36,31.9-27.64,61.53-35.74,91.53-8.81,32.62-17.51,47.43-25.87,80.21-7.7,30.18,21.33,78.7,16.8,109.42-4.92,33.35,29.84,97.83,2.1,119.87-78.26,62.17-101.52-98.63-136.37-92.42-46.06,8.21-63.81,110.84-95.37,117.99-31.18,7.06-71.21-8.01-91.38-35.11-54.81-73.67,43.12-196.53,7.54-223.42-20.13-15.21-61.97,24.16-96.61,60.23-72.37,75.36-60.94,156.34-103.27,164.97-9.21,1.88-23.11-.55-43.28-20.41Z"/>
      <path class="cls-6" d="M290.58,618.78c-3.84-22.08-.18-29.78-6.75-34.05-13.48-8.76-59.31,5.48-68.91,38.16-20.89,71.12-47.4,59.53-80.75,59.5-2.98,0-12.92,7.07-52.69-21.99-64.65-47.25-42.8-146.78-28.98-212.2,7.56-35.8,13.64-72.01,13.87-108.68.23-37.71-4.68-76,6.85-112.62,11.64-36.96,39.47-66.04,75.46-80.08,17.3-6.75,35.56-9.15,53.94-10.89,17.4-1.65,33.31-7.73,50.47-10.16,19.25-2.72,33.41-4.07,42.29,13.06,40.21,77.61,59.81,24.72,66.03,6.91,4.22-12.08,66.52-32.56,100.76-23.4,64.72,17.31,27,110.6,106.45,43.64,33.9-28.57,69.28-11.78,104.47-4.45,51.05,10.63,65.76,32.59,82.41,69.67,15.49,34.49,9.37,73.04-3.05,107.36-12.36,34.17-30.76,65.76-42.33,100.29-11.91,35.55-11.32,71.75-10.97,108.73.34,36.31,18.2,95.77-10.28,122.26-28.68,26.68-114.18,42.3-126.19,7.86-14.07-40.34-42.96-16.35-65.7-1.21-15.47,10.31-23.62,23.77-40.99,30.26-49.04,18.32-97.1,4.75-101.18,3.1-4.57-1.85-9.52-3.84-15.66-7.76-36.4-23.23-46.32-70.42-48.56-83.3Z"/>
      <g>
        <path class="cls-6" d="M210.23,103.25c.39-.08.78-.15,1.17-.22l3.76-.61c.12-.31,2.07-1.11,4.55-2.01"/>
        <path class="cls-5" d="M229.14,97.13c.86-.3,1.44-.51,1.59-.59,18.83-10.08,21.03,8.1,43.64,11.59,18.19,2.81,25.36-7.34,36.93.29,5.17,3.41,10.79,6.11,16.69,7.98,45.32,14.39,16.8-8.21,66.36-7.57,26.32.34,58.08,1.03,83.68-5.69,24.57-6.44,50.6-8.09,75.65-3.72,28.62,5,56.09-1.14,79.72,14.71,22.91,15.37,63.9,1.59,84.85,28.65,16.54,21.36,31.03,34.48,47.54,56.67,34.35,46.17,21.99,107.35-1.98,154.97-24.12,47.92-17.14,89.63-16.93,145.36.2,53.02,34.91,133.11,0,180.07-36.14,48.62-105,27.94-155.51,30.01-26.29,1.08-53.81-6.13-76.46,6.23-25.67,14.01-92.53,20.63-121.99,17.63-52.68-5.37-99.75-34.51-153.12-36.34-54.56-1.87-116.5,22.69-166.49-8.92-10.59-6.7-19.55-15.51-27.36-25.27-52.03-74.88-17.81-163.11-.79-243.54,8.84-41.75,8.52-81.08,4.48-123.32-4.37-45.69-.75-89.67,29.73-126.38,29.49-35.53,65.94-65.04,111.98-55.77.62.12,1.61-.66,2.67-1.82,3.16-3.46,7.09-6.08,11.43-7.73"/>
      </g>
    </g>
  </g>
</svg>